<?xml version="1.0" encoding="UTF-8" standalone="no"?>
<!DOCTYPE svg PUBLIC "-//W3C//DTD SVG 1.1//EN" "http://www.w3.org/Graphics/SVG/1.1/DTD/svg11.dtd">
<svg width="100%" height="100%" viewBox="0 0 16 16" version="1.1" xmlns="http://www.w3.org/2000/svg" xmlns:xlink="http://www.w3.org/1999/xlink" xml:space="preserve" xmlns:serif="http://www.serif.com/" style="fill-rule:evenodd;clip-rule:evenodd;stroke-linejoin:round;stroke-miterlimit:2;">
    <path d="M10,0.586L0.586,10L2,11.414L11.414,2L10,0.586ZM7,13L7,15L9,15L9,13L7,13ZM13,13L13,15L15,15L15,13L13,13Z" style="fill:rgb(224,224,224);fill-rule:nonzero;"/>
    <path d="M7,13L9,13L9,11C9,9.903 9.903,9 11,9C12.097,9 13,9.903 13,11L13,13L15,13L15,11C15,8.806 13.194,7 11,7C8.806,7 7,8.806 7,11L7,13Z" style="fill:white;fill-opacity:0.68;fill-rule:nonzero;"/>
</svg>
