<?xml version="1.0" encoding="UTF-8" standalone="no"?>
<!DOCTYPE svg PUBLIC "-//W3C//DTD SVG 1.1//EN" "http://www.w3.org/Graphics/SVG/1.1/DTD/svg11.dtd">
<svg width="100%" height="100%" viewBox="0 0 16 16" version="1.1" xmlns="http://www.w3.org/2000/svg" xmlns:xlink="http://www.w3.org/1999/xlink" xml:space="preserve" xmlns:serif="http://www.serif.com/" style="fill-rule:evenodd;clip-rule:evenodd;stroke-linejoin:round;stroke-miterlimit:2;">
    <path d="M4.729,2C4.373,1.379 3.71,0.994 2.994,0.994C1.897,0.994 0.994,1.897 0.994,2.994C0.994,3.711 1.378,4.374 2,4.73L2,11.271C1.379,11.627 0.994,12.29 0.994,13.006C0.994,14.103 1.897,15.006 2.994,15.006C3.711,15.006 4.374,14.622 4.73,14L11.271,14C11.628,14.619 12.29,15.002 13.004,15.002C14.101,15.002 15.004,14.099 15.004,13.002C15.004,12.274 14.607,11.601 13.969,11.25L14,11.25L14,4.729C14.621,4.373 15.006,3.71 15.006,2.994C15.006,1.897 14.103,0.994 13.006,0.994C12.289,0.994 11.626,1.378 11.27,2L4.729,2ZM11.271,4C11.446,4.303 11.697,4.554 12,4.729L12,11.271C11.697,11.446 11.446,11.697 11.271,12L4.729,12C4.554,11.697 4.303,11.446 4,11.271L4,4.729C4.303,4.554 4.554,4.303 4.729,4L11.271,4Z" style="fill:rgb(224,224,224);fill-rule:nonzero;"/>
    <path d="M8.75,6.125L8.75,6.875L8,6.875L8,7.625L6.5,7.625L6.5,8.375L5.75,8.375L5.75,9.125L5,9.125L5,9.875L11,9.875L11,8.375L10.25,8.375L10.25,6.875L9.5,6.875L9.5,6.125L8.75,6.125Z" style="fill:rgb(141,165,243);fill-rule:nonzero;"/>
</svg>
